:SAMPLES-PER-SECOND 30
:FULLY-SPECIFIED
:DEGREES
1
root  -0.432812 40.9288 0.730578 -176.023 -84.4912 174.49
RightUpLeg  0.140393 -7.76332 -3.71947
RightLeg  6.50809 -3.44343 3.631
RightFoot  -4.14263 0.149468 -2.94183
RightToes  0.00048216 0.542163 -0.142577
Spine  4.1977 0.796011 0.161059
Spine1  -2.94368 0.685928 1.20941
HEad  10.2195 1.23594 1.50527
LeftShoulder1  0.831311 -1.68418 -8.47718
LeftArm  -19.7658 20.7458 -10.002
LeftForeArm  15.4517 -3.9588 0.252623
LeftHand  -0.25398 0.0180481 5.50724
RightShoulder  0.59485 0.373705 7.8293
RightArm  -21.429 -7.48524 4.45743
RightForeArm  2.22931 4.36254 2.37286
RightHand  -1.78411 4.99826 -20.1073
LeftUpLeg  3.01615 5.10204 2.86814
LeftLeg  4.44457 12.5643 -2.59533
LeftFoot  -5.2713 0.0406185 -0.179215
LeftToes  1.06244e-005 4.65855e-005 -8.18506e-006
2
root  -0.448692 40.9288 0.72455 -176.24 -84.5819 174.702
RightUpLeg  0.204564 -7.7503 -3.68967
RightLeg  6.46901 -3.54263 3.63101
RightFoot  -4.14538 0.148511 -2.92693
RightToes  0.00048216 0.542163 -0.142577
Spine  4.22066 0.769072 0.0710914
Spine1  -2.94561 0.631203 1.37705
HEad  10.2995 1.16417 1.48865
LeftShoulder1  0.823939 -1.59913 -8.61077
LeftArm  -19.8701 20.6377 -10.0385
LeftForeArm  15.5233 -3.85635 0.299666
LeftHand  -0.25398 0.0180481 5.50724
RightShoulder  0.578836 0.315137 7.62278
RightArm  -21.5276 -7.48205 4.66774
RightForeArm  2.4162 4.27607 2.32851
RightHand  -1.76792 4.99782 -19.9323
LeftUpLeg  3.04212 5.1208 2.91611
LeftLeg  4.43696 12.4502 -2.60305
LeftFoot  -5.2713 0.0408028 -0.182079
LeftToes  1.06244e-005 4.65855e-005 -8.18506e-006
3
root  -0.479428 40.9288 0.714274 -176.484 -84.7438 174.918
RightUpLeg  0.34462 -7.73777 -3.65722
RightLeg  6.40025 -3.70349 3.63041
RightFoot  -4.16902 0.147885 -2.91718
RightToes  0.00048216 0.542163 -0.142577
Spine  4.27302 0.716867 -0.0323474
Spine1  -2.95821 0.553254 1.52876
HEad  10.3941 1.07796 1.46896
LeftShoulder1  0.815047 -1.50871 -8.73381
LeftArm  -20.028 20.5061 -10.1457
LeftForeArm  15.5482 -3.72862 0.360932
LeftHand  -0.25398 0.0180481 5.50724
RightShoulder  0.563594 0.258096 7.4267
RightArm  -21.6582 -7.5343 4.89042
RightForeArm  2.59753 4.20415 2.2719
RightHand  -1.732 4.91382 -19.6933
LeftUpLeg  3.12034 5.13166 2.97732
LeftLeg  4.4089 12.2627 -2.6102
LeftFoot  -5.2724 0.0414277 -0.191791
LeftToes  1.06244e-005 4.65855e-005 -8.18506e-006
4
root  -0.510055 40.9289 0.70436 -176.619 -84.8759 175.024
RightUpLeg  0.470134 -7.73307 -3.63739
RightLeg  6.35237 -3.83547 3.62925
RightFoot  -4.21434 0.148784 -2.93119
RightToes  0.00048216 0.542163 -0.142577
Spine  4.30291 0.657614 -0.0160767
Spine1  -2.95286 0.508078 1.43164
HEad  10.4114 1.04416 1.5195
LeftShoulder1  0.808349 -1.48365 -8.67735
LeftArm  -20.0809 20.468 -10.2999
LeftForeArm  15.5071 -3.7181 0.361094
LeftHand  -0.25398 0.0180481 5.50724
RightShoulder  0.56648 0.265304 7.47984
RightArm  -21.6847 -7.61661 4.91441
RightForeArm  2.63897 4.21021 2.25371
RightHand  -1.69794 4.77391 -19.5726
LeftUpLeg  3.20072 5.13711 3.0201
LeftLeg  4.38305 12.1199 -2.61506
LeftFoot  -5.27991 0.0411931 -0.188145
LeftToes  1.06244e-005 4.65855e-005 -8.18506e-006
5
root  -0.533835 40.9296 0.69591 -176.717 -84.9307 175.129
RightUpLeg  0.526818 -7.73808 -3.62383
RightLeg  6.32179 -3.89713 3.64112
RightFoot  -4.25348 0.150289 -2.95463
RightToes  0.00048216 0.542163 -0.142577
Spine  4.27398 0.610662 0.0431489
Spine1  -2.90436 0.486394 1.25769
HEad  10.3395 1.10174 1.58865
LeftShoulder1  0.802176 -1.47096 -8.5662
LeftArm  -20.0044 20.493 -10.4371
LeftForeArm  15.463 -3.79385 0.302236
LeftHand  -0.25398 0.0180481 5.50724
RightShoulder  0.575193 0.29239 7.61744
RightArm  -21.6757 -7.61728 4.88612
RightForeArm  2.63566 4.19232 2.25058
RightHand  -1.68847 4.7223 -19.5615
LeftUpLeg  3.23558 5.15566 3.05594
LeftLeg  4.36699 12.0523 -2.63131
LeftFoot  -5.29507 0.0400597 -0.170532
LeftToes  1.06244e-005 4.65855e-005 -8.18506e-006
6
root  -0.553671 40.9305 0.687788 -176.698 -84.9291 175.161
RightUpLeg  0.519242 -7.74443 -3.61964
RightLeg  6.29805 -3.89357 3.6643
RightFoot  -4.27174 0.151086 -2.96705
RightToes  0.00048216 0.542163 -0.142577
Spine  4.21472 0.593847 -0.024413
Spine1  -2.83689 0.458456 1.30559
HEad  10.2149 1.26518 1.54318
LeftShoulder1  0.798878 -1.42745 -8.62761
LeftArm  -19.8998 20.4947 -10.4925
LeftForeArm  15.3934 -3.82827 0.245347
LeftHand  -0.25398 0.0180481 5.50724
RightShoulder  0.569138 0.262458 7.57137
RightArm  -21.7501 -7.50905 5.01593
RightForeArm  2.66396 4.10236 2.22878
RightHand  -1.6992 4.79286 -19.5519
LeftUpLeg  3.23963 5.16614 3.08186
LeftLeg  4.31684 12.0378 -2.66646
LeftFoot  -5.29749 0.0419745 -0.200288
LeftToes  1.06244e-005 4.65855e-005 -8.18506e-006
